<mxfile host="65bd71144e">
    <diagram id="1Whf98dBidrxYN8-q4fA" name="Page-1">
        <mxGraphModel dx="1038" dy="1884" grid="0" gridSize="10" guides="1" tooltips="1" connect="1" arrows="1" fold="1" page="1" pageScale="1" pageWidth="850" pageHeight="1100" background="#ffffff" math="0" shadow="0">
            <root>
                <mxCell id="0"/>
                <mxCell id="1" parent="0"/>
                <mxCell id="31" value="vnet on premise (mock)" style="rounded=1;whiteSpace=wrap;html=1;labelPosition=center;verticalLabelPosition=top;align=center;verticalAlign=bottom;dashed=1;fillColor=none;strokeColor=#0000CC;strokeWidth=2;fontColor=#000000;" parent="1" vertex="1">
                    <mxGeometry x="112" y="12" width="634" height="290" as="geometry"/>
                </mxCell>
                <mxCell id="2" value="" style="aspect=fixed;html=1;points=[];align=center;image;fontSize=12;image=img/lib/azure2/networking/Application_Gateways.svg;" parent="1" vertex="1">
                    <mxGeometry x="96" y="853" width="64" height="64" as="geometry"/>
                </mxCell>
                <mxCell id="4" value="" style="aspect=fixed;html=1;points=[];align=center;image;fontSize=12;image=img/lib/azure2/networking/Firewalls.svg;" parent="1" vertex="1">
                    <mxGeometry x="231" y="561.5" width="71" height="60" as="geometry"/>
                </mxCell>
                <mxCell id="5" value="" style="aspect=fixed;html=1;points=[];align=center;image;fontSize=12;image=img/lib/azure2/networking/Virtual_Network_Gateways.svg;" parent="1" vertex="1">
                    <mxGeometry x="391.5" y="397" width="52" height="69" as="geometry"/>
                </mxCell>
                <mxCell id="6" value="Hub VNET" style="rounded=1;whiteSpace=wrap;html=1;labelPosition=center;verticalLabelPosition=bottom;align=center;verticalAlign=top;dashed=1;fillColor=none;strokeColor=#0000CC;strokeWidth=2;fontColor=#000000;" parent="1" vertex="1">
                    <mxGeometry x="187" y="378" width="451" height="303" as="geometry"/>
                </mxCell>
                <mxCell id="7" value="AzureFirewallSubnet" style="rounded=1;whiteSpace=wrap;html=1;labelPosition=center;verticalLabelPosition=bottom;align=center;verticalAlign=top;dashed=1;fillColor=none;strokeColor=#0000CC;strokeWidth=2;fontColor=#000000;" parent="1" vertex="1">
                    <mxGeometry x="216" y="550" width="105" height="83" as="geometry"/>
                </mxCell>
                <mxCell id="8" value="snet-jumpbox" style="rounded=1;whiteSpace=wrap;html=1;labelPosition=center;verticalLabelPosition=bottom;align=center;verticalAlign=top;dashed=1;fillColor=none;strokeColor=#0000CC;strokeWidth=2;fontColor=#000000;" parent="1" vertex="1">
                    <mxGeometry x="510" y="548" width="105" height="83" as="geometry"/>
                </mxCell>
                <mxCell id="9" value="" style="aspect=fixed;html=1;points=[];align=center;image;fontSize=12;image=img/lib/azure2/compute/Virtual_Machine.svg;dashed=1;strokeColor=#0000CC;strokeWidth=2;fontColor=#000000;fillColor=none;" parent="1" vertex="1">
                    <mxGeometry x="530" y="557.5" width="69" height="64" as="geometry"/>
                </mxCell>
                <mxCell id="10" value="" style="aspect=fixed;html=1;points=[];align=center;image;fontSize=12;image=img/lib/azure2/networking/Bastions.svg;dashed=1;strokeColor=#0000CC;strokeWidth=2;fontColor=#000000;fillColor=none;" parent="1" vertex="1">
                    <mxGeometry x="388.5" y="553.5" width="57.99999999999999" height="68" as="geometry"/>
                </mxCell>
                <mxCell id="11" value="AzureBastionSubnet" style="rounded=1;whiteSpace=wrap;html=1;labelPosition=center;verticalLabelPosition=bottom;align=center;verticalAlign=top;dashed=1;fillColor=none;strokeColor=#0000CC;strokeWidth=2;fontColor=#000000;" parent="1" vertex="1">
                    <mxGeometry x="365" y="548" width="105" height="83" as="geometry"/>
                </mxCell>
                <mxCell id="12" value="snet-gateway" style="rounded=1;whiteSpace=wrap;html=1;labelPosition=center;verticalLabelPosition=bottom;align=center;verticalAlign=top;dashed=1;fillColor=none;strokeColor=#0000CC;strokeWidth=2;fontColor=#000000;" parent="1" vertex="1">
                    <mxGeometry x="368" y="392" width="105" height="83" as="geometry"/>
                </mxCell>
                <mxCell id="13" value="spoke dev apim" style="rounded=1;whiteSpace=wrap;html=1;labelPosition=center;verticalLabelPosition=bottom;align=center;verticalAlign=top;dashed=1;fillColor=none;strokeColor=#0000CC;strokeWidth=2;fontColor=#000000;" parent="1" vertex="1">
                    <mxGeometry x="66" y="777" width="314" height="221" as="geometry"/>
                </mxCell>
                <mxCell id="14" value="snet-gateway" style="rounded=1;whiteSpace=wrap;html=1;labelPosition=center;verticalLabelPosition=bottom;align=center;verticalAlign=top;dashed=1;fillColor=none;strokeColor=#0000CC;strokeWidth=2;fontColor=#000000;" parent="1" vertex="1">
                    <mxGeometry x="79" y="846" width="105" height="83" as="geometry"/>
                </mxCell>
                <mxCell id="15" value="snet-apim" style="rounded=1;whiteSpace=wrap;html=1;labelPosition=center;verticalLabelPosition=bottom;align=center;verticalAlign=top;dashed=1;fillColor=none;strokeColor=#0000CC;strokeWidth=2;fontColor=#000000;" parent="1" vertex="1">
                    <mxGeometry x="244" y="845.5" width="105" height="83" as="geometry"/>
                </mxCell>
                <mxCell id="16" value="" style="aspect=fixed;html=1;points=[];align=center;image;fontSize=12;image=img/lib/azure2/integration/API_Management_Services.svg;dashed=1;strokeColor=#0000CC;strokeWidth=2;fontColor=#000000;fillColor=none;" parent="1" vertex="1">
                    <mxGeometry x="262.5" y="853" width="65" height="60" as="geometry"/>
                </mxCell>
                <mxCell id="19" value="" style="aspect=fixed;html=1;points=[];align=center;image;fontSize=12;image=img/lib/azure2/networking/Application_Gateways.svg;" parent="1" vertex="1">
                    <mxGeometry x="494" y="853" width="64" height="64" as="geometry"/>
                </mxCell>
                <mxCell id="20" value="spoke prod apim" style="rounded=1;whiteSpace=wrap;html=1;labelPosition=center;verticalLabelPosition=bottom;align=center;verticalAlign=top;dashed=1;fillColor=none;strokeColor=#0000CC;strokeWidth=2;fontColor=#000000;" parent="1" vertex="1">
                    <mxGeometry x="464" y="777" width="314" height="221" as="geometry"/>
                </mxCell>
                <mxCell id="21" value="snet-gateway" style="rounded=1;whiteSpace=wrap;html=1;labelPosition=center;verticalLabelPosition=bottom;align=center;verticalAlign=top;dashed=1;fillColor=none;strokeColor=#0000CC;strokeWidth=2;fontColor=#000000;" parent="1" vertex="1">
                    <mxGeometry x="477" y="846" width="105" height="83" as="geometry"/>
                </mxCell>
                <mxCell id="22" value="snet-apim" style="rounded=1;whiteSpace=wrap;html=1;labelPosition=center;verticalLabelPosition=bottom;align=center;verticalAlign=top;dashed=1;fillColor=none;strokeColor=#0000CC;strokeWidth=2;fontColor=#000000;" parent="1" vertex="1">
                    <mxGeometry x="642" y="843.5" width="105" height="83" as="geometry"/>
                </mxCell>
                <mxCell id="23" value="" style="aspect=fixed;html=1;points=[];align=center;image;fontSize=12;image=img/lib/azure2/integration/API_Management_Services.svg;dashed=1;strokeColor=#0000CC;strokeWidth=2;fontColor=#000000;fillColor=none;" parent="1" vertex="1">
                    <mxGeometry x="660.5" y="853" width="65" height="60" as="geometry"/>
                </mxCell>
                <mxCell id="27" value="star wars api dev" style="aspect=fixed;html=1;points=[];align=center;image;fontSize=12;image=img/lib/azure2/compute/App_Services.svg;dashed=1;strokeColor=#0000CC;strokeWidth=2;fontColor=#000000;fillColor=none;labelBackgroundColor=none;" parent="1" vertex="1">
                    <mxGeometry x="184" y="1065" width="64" height="64" as="geometry"/>
                </mxCell>
                <mxCell id="28" value="star wars api prod" style="aspect=fixed;html=1;points=[];align=center;image;fontSize=12;image=img/lib/azure2/compute/App_Services.svg;dashed=1;strokeColor=#0000CC;strokeWidth=2;fontColor=#000000;fillColor=none;labelBackgroundColor=none;" parent="1" vertex="1">
                    <mxGeometry x="586" y="1070" width="64" height="64" as="geometry"/>
                </mxCell>
                <mxCell id="30" value="" style="aspect=fixed;html=1;points=[];align=center;image;fontSize=12;image=img/lib/azure2/networking/Virtual_Network_Gateways.svg;" parent="1" vertex="1">
                    <mxGeometry x="397.5" y="181" width="52" height="69" as="geometry"/>
                </mxCell>
                <mxCell id="46" style="edgeStyle=none;html=1;entryX=0;entryY=0.5;entryDx=0;entryDy=0;strokeColor=#000000;" edge="1" parent="1" source="33" target="40">
                    <mxGeometry relative="1" as="geometry"/>
                </mxCell>
                <mxCell id="33" value="snet-self-hosted-gateway" style="rounded=1;whiteSpace=wrap;html=1;labelPosition=center;verticalLabelPosition=bottom;align=center;verticalAlign=top;dashed=1;fillColor=none;strokeColor=#0000CC;strokeWidth=2;fontColor=#000000;" parent="1" vertex="1">
                    <mxGeometry x="373" y="37" width="105" height="83" as="geometry"/>
                </mxCell>
                <mxCell id="34" value="" style="aspect=fixed;html=1;points=[];align=center;image;fontSize=12;image=img/lib/azure2/compute/Virtual_Machine.svg;dashed=1;strokeColor=#0000CC;strokeWidth=2;fontColor=#000000;fillColor=none;" parent="1" vertex="1">
                    <mxGeometry x="594" y="42" width="69" height="64" as="geometry"/>
                </mxCell>
                <mxCell id="48" style="edgeStyle=none;html=1;entryX=0.517;entryY=-0.003;entryDx=0;entryDy=0;entryPerimeter=0;strokeColor=#000000;" edge="1" parent="1" target="6">
                    <mxGeometry relative="1" as="geometry">
                        <mxPoint x="420" y="299" as="sourcePoint"/>
                    </mxGeometry>
                </mxCell>
                <mxCell id="49" style="edgeStyle=none;html=1;strokeColor=#000000;" edge="1" parent="1" source="37">
                    <mxGeometry relative="1" as="geometry">
                        <mxPoint x="629" y="164" as="targetPoint"/>
                        <Array as="points">
                            <mxPoint x="629" y="216"/>
                        </Array>
                    </mxGeometry>
                </mxCell>
                <mxCell id="37" value="snet-gateway" style="rounded=1;whiteSpace=wrap;html=1;labelPosition=center;verticalLabelPosition=bottom;align=center;verticalAlign=top;dashed=1;fillColor=none;strokeColor=#0000CC;strokeWidth=2;fontColor=#000000;" parent="1" vertex="1">
                    <mxGeometry x="371" y="174" width="105" height="83" as="geometry"/>
                </mxCell>
                <mxCell id="40" value="snet-api" style="rounded=1;whiteSpace=wrap;html=1;labelPosition=center;verticalLabelPosition=bottom;align=center;verticalAlign=top;dashed=1;fillColor=none;strokeColor=#0000CC;strokeWidth=2;fontColor=#000000;" parent="1" vertex="1">
                    <mxGeometry x="576" y="34" width="105" height="90" as="geometry"/>
                </mxCell>
                <mxCell id="41" value="" style="aspect=fixed;html=1;points=[];align=center;image;fontSize=12;image=img/lib/azure2/compute/Virtual_Machine.svg;dashed=1;labelBackgroundColor=none;strokeColor=#0000CC;strokeWidth=2;fontColor=#000000;fillColor=none;" parent="1" vertex="1">
                    <mxGeometry x="391" y="45" width="69" height="64" as="geometry"/>
                </mxCell>
                <mxCell id="47" style="edgeStyle=none;html=1;entryX=0;entryY=0.5;entryDx=0;entryDy=0;strokeColor=#000000;" edge="1" parent="1" target="37">
                    <mxGeometry relative="1" as="geometry">
                        <mxPoint x="190" y="148" as="sourcePoint"/>
                        <Array as="points">
                            <mxPoint x="190" y="218"/>
                        </Array>
                    </mxGeometry>
                </mxCell>
                <mxCell id="42" value="snet-client" style="rounded=1;whiteSpace=wrap;html=1;labelPosition=center;verticalLabelPosition=bottom;align=center;verticalAlign=top;dashed=1;fillColor=none;strokeColor=#0000CC;strokeWidth=2;fontColor=#000000;" parent="1" vertex="1">
                    <mxGeometry x="137" y="38.5" width="105" height="83" as="geometry"/>
                </mxCell>
                <mxCell id="45" style="edgeStyle=none;html=1;entryX=0;entryY=0.5;entryDx=0;entryDy=0;exitX=1;exitY=0.5;exitDx=0;exitDy=0;strokeColor=#000000;" edge="1" parent="1" source="42" target="33">
                    <mxGeometry relative="1" as="geometry"/>
                </mxCell>
                <mxCell id="43" value="" style="aspect=fixed;html=1;points=[];align=center;image;fontSize=12;image=img/lib/azure2/compute/Virtual_Machine.svg;dashed=1;labelBackgroundColor=none;strokeColor=#0000CC;strokeWidth=2;fontColor=#000000;fillColor=none;" parent="1" vertex="1">
                    <mxGeometry x="155" y="46" width="69" height="64" as="geometry"/>
                </mxCell>
                <mxCell id="44" value="" style="sketch=0;pointerEvents=1;shadow=0;dashed=0;html=1;strokeColor=none;fillColor=#505050;labelPosition=center;verticalLabelPosition=bottom;verticalAlign=top;outlineConnect=0;align=center;shape=mxgraph.office.servers.datacenter;" vertex="1" parent="1">
                    <mxGeometry x="144" y="-27" width="53" height="53" as="geometry"/>
                </mxCell>
            </root>
        </mxGraphModel>
    </diagram>
</mxfile>